<svg xmlns="http://www.w3.org/2000/svg" xmlns:xlink="http://www.w3.org/1999/xlink" width="500" zoomAndPan="magnify" viewBox="0 0 375 374.999991" height="500" preserveAspectRatio="xMidYMid meet" version="1.0"><path fill="#5d3fd3" d="M 374.917969 108.136719 C 374.917969 110.277344 374.917969 112.421875 374.917969 114.5625 C 371.21875 120.269531 364.90625 122.867188 359.976562 127.105469 C 346.28125 134.59375 331.976562 139.65625 316.027344 138.226562 C 315.3125 138.175781 314.605469 138.128906 313.890625 138.078125 C 309.425781 136.742188 304.960938 135.402344 300.261719 133.996094 C 300.910156 138.675781 301.300781 143.058594 302.15625 147.347656 C 303.816406 155.660156 304.03125 164.210938 306.332031 172.414062 C 306.382812 173.125 306.433594 173.835938 306.484375 174.546875 C 306.5 176.386719 306.222656 178.273438 307.402344 179.910156 C 307.527344 182.125 306.976562 184.414062 308.109375 186.523438 C 308.238281 186.859375 308.371094 187.195312 308.503906 187.527344 L 308.414062 187.488281 C 308.617188 189.410156 308.597656 191.386719 309.058594 193.246094 C 312.039062 205.179688 314.96875 217.125 318.226562 228.984375 C 320.625 237.71875 321.746094 246.8125 325.527344 255.164062 C 324.929688 258.101562 327.074219 260.585938 326.90625 263.453125 C 326.707031 264.179688 327.054688 264.605469 327.679688 264.886719 C 327.765625 265.472656 327.855469 266.0625 327.945312 266.648438 C 331.472656 280.566406 335.003906 294.476562 338.53125 308.390625 C 338.53125 309.46875 338.53125 310.550781 338.53125 311.628906 C 337.414062 315.84375 335.472656 319.570312 332.144531 322.484375 C 331.042969 323.113281 329.941406 323.738281 328.835938 324.367188 C 316.894531 326.726562 310.085938 322.214844 307.375 310.335938 C 306.5625 306.773438 305.355469 303.304688 304.332031 299.792969 C 303.84375 294.246094 301.910156 289.046875 300.449219 283.734375 C 299.101562 277.613281 297.863281 271.460938 295.671875 265.566406 C 293.929688 256.894531 291.980469 248.277344 289.148438 239.882812 C 287.574219 232.578125 286.738281 225.054688 282.925781 218.390625 C 282.84375 217.332031 282.769531 216.277344 282.683594 215.21875 C 282.914062 213.9375 282.878906 212.71875 281.847656 211.738281 C 281.707031 210.75 281.566406 209.757812 281.425781 208.769531 C 281.339844 208.410156 281.253906 208.046875 281.167969 207.6875 C 281.445312 207.136719 281.171875 207 280.675781 207.027344 C 273.679688 206.570312 273.675781 206.570312 273.675781 213.199219 C 273.671875 244.421875 273.644531 275.640625 273.707031 306.867188 C 273.714844 311.226562 273.191406 315.367188 270.855469 319.132812 C 268.695312 321.164062 266.503906 323.148438 263.722656 324.324219 L 263.90625 324.484375 L 263.816406 324.421875 L 263.558594 324.5625 C 263.195312 324.621094 262.835938 324.675781 262.476562 324.734375 C 262.136719 324.816406 261.792969 324.90625 261.453125 324.988281 C 250.953125 326.414062 243.195312 319.648438 243.183594 308.894531 C 243.148438 274.71875 243.445312 240.539062 243.023438 206.367188 C 242.871094 194.210938 240.21875 182.195312 237.886719 170.234375 C 237.820312 169.519531 237.757812 168.808594 237.695312 168.09375 C 237.324219 165.597656 236.957031 163.105469 236.585938 160.609375 C 236.808594 159.179688 236.886719 157.769531 236.132812 156.449219 C 234.988281 150.316406 235.476562 143.867188 232.605469 138.066406 C 232.554688 136.65625 232.511719 135.242188 232.464844 133.828125 C 232.371094 133.5 232.277344 133.167969 232.1875 132.835938 C 231.050781 129.875 227.226562 128.769531 226.9375 125.230469 C 230.199219 122.941406 233.460938 120.652344 237.835938 117.582031 C 232.417969 118.351562 229.660156 121.304688 226.335938 123.117188 C 222.023438 125.472656 220.585938 128.796875 220.605469 133.886719 C 220.835938 192.222656 220.78125 250.558594 220.792969 308.894531 C 220.792969 318.054688 215.589844 324.636719 207.679688 325.601562 C 199.042969 326.660156 192.941406 322.082031 190.445312 312.679688 C 190.464844 280.660156 190.496094 248.636719 190.46875 216.617188 C 190.46875 215.53125 191.226562 214.089844 189.628906 213.355469 C 185.609375 212.082031 184.105469 213.542969 184.527344 217.691406 C 184.792969 220.332031 184.511719 223.023438 184.511719 225.695312 C 184.53125 253.277344 184.5 280.859375 184.628906 308.445312 C 184.652344 314.0625 183.484375 318.9375 178.785156 322.472656 C 169.242188 329.65625 158.570312 325.4375 154.125 312.71875 C 154.109375 312.34375 154.09375 311.96875 154.078125 311.59375 C 154.125 309.8125 154.214844 308.03125 154.21875 306.253906 C 154.246094 248.472656 154.261719 190.695312 154.285156 132.914062 C 154.285156 126.328125 146.585938 119.179688 139.75 119.320312 C 142.214844 121.167969 145.628906 122.5625 147.058594 125.082031 C 149.230469 128.894531 143.832031 129.875 142.746094 132.699219 C 142.496094 133.359375 142.203125 134.03125 142.109375 134.726562 C 141.171875 141.5625 139.40625 148.292969 139.390625 155.25 C 139.308594 155.941406 139.21875 156.632812 139.136719 157.324219 C 138.378906 157.894531 138.308594 158.671875 138.476562 159.523438 C 138.363281 160.945312 138.246094 162.363281 138.128906 163.785156 C 137.261719 165.109375 137.152344 166.578125 137.324219 168.097656 C 137.257812 168.8125 137.195312 169.523438 137.132812 170.234375 C 135.316406 176.902344 134.707031 183.746094 134.074219 190.589844 C 133.996094 191.292969 133.921875 191.992188 133.84375 192.695312 C 133.0625 193.652344 132.890625 194.746094 133.117188 195.933594 C 133.003906 197.347656 132.886719 198.769531 132.773438 200.183594 C 131.832031 201.394531 131.828125 202.832031 131.832031 204.25 C 131.875 220.042969 131.925781 235.835938 131.980469 251.628906 C 131.980469 256.992188 131.980469 262.359375 131.980469 267.722656 C 131.980469 273.066406 131.980469 278.410156 131.980469 283.757812 C 131.980469 289.121094 131.980469 294.484375 131.980469 299.847656 C 131.332031 305.175781 132.675781 310.636719 130.882812 315.882812 C 130.636719 316.128906 130.566406 316.414062 130.671875 316.746094 C 127.089844 322.078125 122.191406 325.171875 115.699219 325.558594 C 115.023438 325.355469 114.34375 325.152344 113.667969 324.953125 C 112.925781 324.828125 112.183594 324.699219 111.441406 324.570312 C 104.027344 320.953125 101.410156 315.082031 101.578125 306.839844 C 101.984375 286.714844 101.707031 266.574219 101.707031 246.441406 C 101.707031 234.503906 101.636719 222.566406 101.769531 210.632812 C 101.792969 208.160156 101.03125 206.898438 98.589844 206.84375 C 96.78125 206.804688 94.214844 205.515625 93.632812 208.296875 C 92.851562 212.046875 90.65625 215.484375 91.078125 219.496094 C 89.21875 224.730469 87.746094 230.0625 86.941406 235.5625 C 86.695312 235.871094 86.648438 236.203125 86.816406 236.5625 C 86.640625 236.898438 86.46875 237.234375 86.296875 237.570312 C 86.082031 238.675781 85.867188 239.777344 85.652344 240.886719 C 81.589844 254.6875 77.957031 268.597656 75.054688 282.691406 C 72.875 288.207031 71.609375 293.960938 70.675781 299.792969 C 68.886719 305.855469 67.09375 311.917969 65.300781 317.976562 L 65.347656 317.917969 C 60.324219 324.121094 54.101562 326.789062 46.167969 324.417969 L 46.207031 324.4375 C 45.855469 324.191406 45.496094 323.953125 45.148438 323.707031 C 43.5625 322.496094 41.976562 321.292969 40.394531 320.085938 C 40.15625 319.828125 39.921875 319.566406 39.683594 319.308594 L 39.558594 319.140625 C 39.257812 318.753906 38.960938 318.367188 38.664062 317.980469 C 38.511719 317.605469 38.355469 317.234375 38.199219 316.863281 C 37.992188 316.539062 37.789062 316.214844 37.585938 315.890625 L 37.582031 315.890625 C 35.640625 310.40625 37.714844 305.160156 38.535156 299.84375 C 38.789062 299.539062 38.839844 299.207031 38.675781 298.84375 C 38.847656 298.507812 39.023438 298.167969 39.191406 297.832031 C 39.3125 293.683594 42.140625 290.175781 41.976562 285.960938 C 44.402344 279.710938 45.601562 273.144531 47.074219 266.644531 C 49.683594 256.3125 52.292969 245.980469 54.902344 235.648438 C 56.894531 228.226562 58.972656 220.824219 60.867188 213.375 C 64.28125 199.9375 68.0625 186.5625 68.726562 172.589844 C 70.230469 170.203125 69.671875 167.519531 69.824219 164.9375 C 70.808594 163.636719 70.839844 162.152344 70.632812 160.625 C 70.71875 159.925781 70.808594 159.226562 70.890625 158.523438 C 71.796875 153.332031 72.621094 148.125 73.617188 142.949219 C 75.25 134.476562 74.972656 134.113281 66.628906 136.550781 C 64.800781 137.085938 62.636719 136.449219 61.125 138.074219 C 60.410156 138.125 59.699219 138.171875 58.988281 138.222656 C 43.53125 139.457031 29.457031 135.109375 16.179688 127.582031 C 15.941406 127.3125 15.652344 127.230469 15.308594 127.335938 C 14.472656 126.160156 13.273438 125.550781 11.9375 125.152344 L 11.996094 125.199219 C 11.246094 123.988281 10.046875 123.410156 8.777344 122.941406 L 8.851562 123.007812 C 5.753906 120.375 2.363281 118.054688 0.101562 114.558594 C 0.101562 112.417969 0.101562 110.273438 0.101562 108.132812 C 3.625 102.59375 8.347656 100.425781 14.734375 102.910156 C 16.539062 105.28125 19 106.78125 21.601562 108.09375 C 29.902344 114.109375 38.816406 118.65625 49.304688 119.003906 C 52.625 119.113281 54.835938 119.980469 56.058594 123.375 C 56.847656 125.5625 58.984375 126.78125 61.257812 127.667969 C 67.523438 130.105469 77.050781 125.996094 81.710938 117.832031 C 77.519531 120.476562 74.273438 122.484375 71.066406 124.554688 C 68.378906 126.289062 65.679688 126.90625 62.535156 125.640625 C 55.03125 122.621094 54.359375 114.820312 61.121094 108.125 C 62.605469 107.15625 64.089844 106.1875 65.574219 105.21875 C 72.066406 101.988281 78.359375 98.40625 85.296875 96.042969 C 88.625 94.90625 90.082031 95.253906 91.882812 98.523438 C 101.914062 116.699219 125.332031 119.757812 139.8125 105.050781 C 142.414062 102.410156 144 96.816406 149.480469 101.421875 C 149.777344 101.667969 151.226562 100.492188 152.171875 100.035156 C 155.351562 98.496094 158.574219 97.027344 161.738281 95.453125 C 164.226562 94.214844 165.992188 94.585938 168.273438 96.539062 C 178.898438 105.625 194.234375 106.371094 205.15625 97.75 C 209.089844 94.644531 211.953125 94.882812 215.90625 96.539062 C 220.210938 98.34375 223.914062 102.816406 229.527344 99.722656 C 231.128906 98.839844 231.71875 100.914062 232.566406 101.992188 C 246.867188 120.140625 272.429688 118.152344 283.554688 97.859375 C 285.097656 95.046875 286.414062 94.828125 288.925781 95.839844 C 293.167969 97.550781 297.46875 99.121094 301.738281 100.753906 C 305.785156 103.214844 309.832031 105.675781 313.878906 108.136719 C 314.492188 108.765625 315.105469 109.390625 315.71875 110.019531 C 319.382812 113.769531 319.847656 118.484375 316.9375 122.433594 C 313.921875 126.523438 308.78125 127.488281 304.183594 124.71875 C 301.304688 122.984375 298.601562 120.933594 295.644531 119.347656 C 294.191406 118.566406 292.71875 116.679688 290.453125 118.164062 C 294.644531 121.03125 298.578125 123.914062 302.699219 126.5 C 308.585938 130.199219 316.191406 129.089844 318.886719 123.371094 C 320.667969 119.597656 323.21875 119.238281 326.320312 119.03125 C 336.570312 118.34375 345.296875 113.957031 353.453125 108.109375 C 353.859375 107.828125 354.265625 107.542969 354.675781 107.261719 C 357.171875 105.636719 359.664062 104.015625 362.160156 102.390625 C 362.597656 102.195312 363.039062 101.996094 363.476562 101.796875 C 364.789062 101.78125 366.105469 101.765625 367.417969 101.75 C 370.816406 102.804688 372.882812 105.449219 374.917969 108.136719 Z M 374.917969 108.136719 " fill-opacity="1" fill-rule="evenodd"/><path fill="#5d3fd3" d="M 231.292969 72.808594 C 236.054688 63.667969 243.539062 58.25 253.664062 56.441406 C 254.210938 56.40625 254.753906 56.375 255.296875 56.339844 C 255.898438 56.367188 256.503906 56.390625 257.105469 56.417969 C 270.351562 57.050781 278.738281 64.230469 283.652344 76.097656 C 286.0625 88.242188 283.40625 98.796875 273.199219 106.433594 C 259.492188 116.691406 238.535156 112.832031 230.257812 93.164062 C 230.359375 92.429688 229.910156 92.125 229.3125 91.933594 C 229.34375 91.609375 229.300781 91.296875 229.1875 90.992188 C 229.355469 84.867188 228.699219 78.648438 231.292969 72.808594 Z M 231.292969 72.808594 " fill-opacity="1" fill-rule="evenodd"/><path fill="#5d3fd3" d="M 182.210938 46.046875 C 182.550781 45.996094 182.886719 45.945312 183.226562 45.890625 C 193.988281 45.003906 202.871094 48.714844 209.957031 56.824219 C 210.203125 57.1875 210.457031 57.554688 210.703125 57.914062 C 213.589844 63.21875 215.386719 68.828125 215.445312 74.921875 C 215.371094 75.980469 215.300781 77.039062 215.226562 78.101562 C 214.402344 79.042969 214.179688 80.136719 214.394531 81.34375 C 210.507812 91.355469 203.980469 98.507812 193.027344 100.621094 C 179.59375 103.214844 167.378906 96.71875 161.929688 84.242188 C 161.511719 83.28125 161.066406 82.332031 160.636719 81.375 C 160.777344 80.167969 160.609375 79.042969 159.765625 78.097656 C 159.691406 77.039062 159.617188 75.980469 159.546875 74.921875 C 160.453125 59.578125 166.976562 51.265625 182.210938 46.046875 Z M 182.210938 46.046875 " fill-opacity="1" fill-rule="evenodd"/><path fill="#5d3fd3" d="M 112.527344 56.667969 C 116.453125 56.703125 120.378906 56.738281 124.300781 56.769531 C 127.054688 57.878906 129.808594 58.984375 132.5625 60.097656 C 136.902344 63.425781 140.574219 67.359375 143.441406 72.027344 C 144.273438 75.132812 145.097656 78.238281 145.929688 81.34375 C 145.242188 96.632812 139.265625 106.132812 127.757812 110.234375 C 115.292969 114.671875 100.804688 109.570312 94.484375 98.511719 C 87.460938 86.226562 90.066406 71.429688 100.808594 62.597656 C 101.882812 61.714844 102.984375 60.859375 104.070312 59.988281 C 106.886719 58.882812 109.703125 57.773438 112.527344 56.667969 Z M 112.527344 56.667969 " fill-opacity="1" fill-rule="evenodd"/></svg>